<?xml version="1.0" encoding="utf-8"?>
<!-- Generator: Adobe Illustrator 21.0.0, SVG Export Plug-In . SVG Version: 6.00 Build 0)  -->
<svg version="1.1" id="Layer_1" xmlns="http://www.w3.org/2000/svg" xmlns:xlink="http://www.w3.org/1999/xlink" x="0px" y="0px"
	 viewBox="0 0 256 256" style="enable-background:new 0 0 256 256;" xml:space="preserve">
<style type="text/css">
	.st0{fill:#767576;}
	.st1{font-family:'GothamBold';}
	.st2{font-size:35.4468px;}
	.st3{fill:none;stroke:#767576;stroke-width:7.370327e-02;stroke-miterlimit:10;}
	.st4{fill:none;stroke:#767576;stroke-width:1.1793;stroke-miterlimit:10;}
</style>
<g>
	<text transform="matrix(1 0 0 1 3 187.3828)"><tspan x="0" y="0" class="st0 st1 st2">TECH</tspan><tspan x="0" y="31" class="st0 st1 st2">RADAR</tspan></text>
	<g>
		<polygon class="st4" points="232.3,30.2 211.7,40.5 191,30.2 170.4,40.5 149.7,30.2 129,40.5 129,71.5 149.7,81.9 170.4,71.5 
			170.4,143.8 191,154.2 211.7,143.8 211.7,71.5 232.3,81.9 253,71.5 253,40.5 		"/>
		<line class="st4" x1="129" y1="40.5" x2="211.7" y2="71.5"/>
		<line class="st4" x1="170.4" y1="40.5" x2="129" y2="71.5"/>
		<line class="st4" x1="170.4" y1="71.5" x2="129" y2="40.5"/>
		<line class="st4" x1="253" y1="40.5" x2="170.4" y2="71.5"/>
		<line class="st4" x1="211.7" y1="71.5" x2="170.4" y2="143.8"/>
		<line class="st4" x1="191" y1="30.2" x2="149.7" y2="81.9"/>
		<line class="st4" x1="211.7" y1="40.5" x2="170.4" y2="71.5"/>
		<line class="st4" x1="191" y1="154.2" x2="170.4" y2="71.5"/>
		<line class="st4" x1="149.7" y1="81.9" x2="129" y2="40.5"/>
		<line class="st4" x1="170.4" y1="40.5" x2="129" y2="40.5"/>
		<line class="st4" x1="211.7" y1="71.5" x2="170.4" y2="40.5"/>
		<line class="st4" x1="170.4" y1="71.5" x2="211.7" y2="143.8"/>
	</g>
	<g>
		<polygon class="st4" points="87.7,40.5 87.7,61.1 67.1,71.5 46.4,61.1 46.4,40.5 25.7,30.1 5.1,40.5 5.1,81.8 25.7,92.1 
			5.1,102.5 5.1,143.8 25.7,154.1 46.4,143.8 46.4,123.1 67.1,112.8 87.7,123.1 87.7,143.8 108.4,154.1 129,143.8 129,102.5 
			108.4,92.1 129,81.8 129,40.5 108.4,30.1 		"/>
		<line class="st4" x1="5.1" y1="61.1" x2="87.7" y2="123.1"/>
		<line class="st4" x1="46.4" y1="40.5" x2="5.1" y2="61.1"/>
		<line class="st4" x1="46.4" y1="143.8" x2="25.7" y2="92.1"/>
		<line class="st4" x1="129" y1="40.5" x2="67.1" y2="112.8"/>
		<line class="st4" x1="129" y1="102.5" x2="87.7" y2="143.8"/>
		<line class="st4" x1="46.4" y1="61.1" x2="5.1" y2="61.1"/>
		<line class="st4" x1="25.7" y1="92.1" x2="67.1" y2="71.5"/>
		<line class="st4" x1="46.4" y1="123.1" x2="5.1" y2="143.8"/>
		<line class="st4" x1="67.1" y1="112.8" x2="5.1" y2="102.5"/>
		<line class="st4" x1="87.7" y1="61.1" x2="5.1" y2="143.8"/>
		<line class="st4" x1="25.7" y1="30.1" x2="5.1" y2="61.1"/>
		<line class="st4" x1="46.4" y1="61.1" x2="25.7" y2="92.1"/>
		<line class="st4" x1="87.7" y1="61.1" x2="129" y2="40.5"/>
		<line class="st4" x1="87.7" y1="61.1" x2="67.1" y2="112.8"/>
		<line class="st4" x1="67.1" y1="112.8" x2="46.4" y2="61.1"/>
		<line class="st4" x1="5.1" y1="61.1" x2="25.7" y2="92.1"/>
		<line class="st4" x1="46.4" y1="143.8" x2="5.1" y2="102.5"/>
		<line class="st4" x1="46.4" y1="40.5" x2="5.1" y2="81.8"/>
		<line class="st4" x1="25.7" y1="92.1" x2="46.4" y2="40.5"/>
	</g>
</g>
</svg>
